<svg width="1024" height="1024" viewBox="0 0 1024 1024" xmlns="http://www.w3.org/2000/svg">
  <defs>
    <linearGradient id="bg" x1="0" y1="0" x2="1024" y2="1024" gradientUnits="userSpaceOnUse">
      <stop offset="0" stop-color="#3AA6FF"/>
      <stop offset="1" stop-color="#0A57D0"/>
    </linearGradient>
    <linearGradient id="cloud" x1="512" y1="230" x2="512" y2="760" gradientUnits="userSpaceOnUse">
      <stop offset="0" stop-color="#FFFFFF"/>
      <stop offset="1" stop-color="#E9F2FF"/>
    </linearGradient>
    <filter id="soft" x="-20%" y="-20%" width="140%" height="140%">
      <feDropShadow dx="0" dy="14" stdDeviation="22" flood-color="#053a91" flood-opacity="0.28"/>
    </filter>
  </defs>

  <!-- rounded-square (squircle-ish) background -->
  <rect x="0" y="0" width="1024" height="1024" rx="232" ry="232" fill="url(#bg)"/>
  <!-- subtle top sheen -->
  <rect x="0" y="0" width="1024" height="1024" rx="232" ry="232" fill="#FFFFFF" opacity="0.06"/>

  <!-- cloud (Material cloud path, scaled/centred) -->
  <g filter="url(#soft)" transform="translate(182,150) scale(27.5)">
    <path fill="url(#cloud)"
      d="M19.35 10.04C18.67 6.59 15.64 4 12 4 9.11 4 6.6 5.64 5.35 8.04 2.34 8.36 0 10.91 0 14c0 3.31 2.69 6 6 6h13c2.76 0 5-2.24 5-5 0-2.64-2.05-4.78-4.65-4.96z"/>
  </g>

  <!-- sync double-arrow (Material sync path) centred on the cloud, deep-blue knockout -->
  <g transform="translate(407,398) scale(8.75)">
    <path fill="#0A57D0"
      d="M12 4V1L8 5l4 4V6c3.31 0 6 2.69 6 6 0 1.01-.25 1.97-.7 2.8l1.46 1.46C19.54 15.03 20 13.57 20 12c0-4.42-3.58-8-8-8zm0 14c-3.31 0-6-2.69-6-6 0-1.01.25-1.97.7-2.8L5.24 7.74C4.46 8.97 4 10.43 4 12c0 4.42 3.58 8 8 8v3l4-4-4-4v3z"/>
  </g>
</svg>
